<?xml version="1.0" encoding="UTF-8"?>
<svg id="Escritorio" xmlns="http://www.w3.org/2000/svg" viewBox="0 0 314.65 314.65">
  <path d="M163.72,172.5c.56-10.01,5.46-18.82,12.85-25.07,7.25-6.14,17.01-9.89,27.66-9.89s20.4,3.75,27.65,9.89c7.39,6.25,12.29,15.07,12.85,25.06,.56,10.28-3.57,19.84-10.82,26.92-7.39,7.2-17.91,11.72-29.68,11.72s-22.31-4.52-29.7-11.72c-7.26-7.08-11.38-16.63-10.81-26.91Z"/>
  <path d="M99.2,192.72c.07,3.92,1.32,11.53,3.19,17.47,3.94,12.58,10.62,24.22,19.91,34.47,9.54,10.54,21.28,19.01,34.84,25.02,14.26,6.31,29.71,9.53,45.75,9.5,16.02-.02,31.47-3.3,45.73-9.66,13.56-6.07,25.3-14.57,34.82-25.12,9.29-10.3,15.96-21.96,19.9-34.54,1.98-6.36,3.24-12.81,3.74-19.28,.49-6.38,.29-12.77-.62-19.15-1.77-12.44-6.07-24.11-12.7-34.74-6.06-9.77-13.87-18.33-23.16-25.54l.02-.02L176.91,39.18c-.08-.06-.15-.13-.24-.19-6.15-4.72-16.49-4.7-23.25,.03-6.84,4.78-7.62,12.7-1.53,17.69l-.03,.03,39.09,31.79-119.16,.13h-.16c-9.85,.01-19.32,6.47-21.19,14.64-1.93,8.32,4.76,15.22,15,15.26l-.02,.04,60.4-.12L18.05,201.19c-.14,.1-.29,.21-.41,.31-10.17,7.78-13.45,20.73-7.05,28.92,6.5,8.33,20.32,8.35,30.59,.05l58.82-48.14s-.86,6.5-.79,10.4Zm151.14,21.76c-12.12,12.35-29.09,19.35-47.45,19.39-18.39,.03-35.35-6.91-47.47-19.23-5.92-6.01-10.27-12.92-12.96-20.28-2.63-7.23-3.65-14.91-2.97-22.66,.64-7.57,2.89-14.8,6.49-21.33,3.54-6.42,8.4-12.23,14.42-17.14,11.78-9.6,26.78-14.8,42.47-14.82,15.7-.02,30.69,5.13,42.48,14.7,6,4.89,10.87,10.67,14.4,17.09,3.61,6.53,5.85,13.73,6.52,21.32,.67,7.74-.35,15.41-2.98,22.65-2.69,7.38-7.02,14.29-12.94,20.33Z"/>
</svg>