<?xml version="1.0" encoding="UTF-8"?>
<svg id="Escritorio" xmlns="http://www.w3.org/2000/svg" viewBox="0 0 314.65 314.65">
  <path d="M137.7,140.18c-1.31-4.06-2.49-7.98-3.79-12.04-1.31-4.06-2.49-7.85-3.53-11.65-1.05-3.66-1.96-7.07-2.88-10.21h-.26c-1.18,5.63-2.62,11.25-4.45,16.88-1.96,6.28-3.93,12.82-6.02,19.37-1.83,6.67-3.79,12.82-5.76,18.32h33.24c-.79-2.75-1.83-6.02-3.01-9.42-1.18-3.53-2.36-7.33-3.53-11.25Z"/>
  <path d="M258.74,4.23H55.92C25.16,4.23,.3,29.09,.3,59.84V254.81c0,30.75,24.86,55.61,55.61,55.61h202.82c30.75,0,55.61-24.86,55.61-55.61V59.84c0-30.75-24.86-55.61-55.61-55.61Zm-66.47,215.78h-27.35c-.92,.13-1.83-.52-2.09-1.44l-10.73-31.14h-48.68l-9.94,30.75c-.26,1.18-1.31,1.96-2.49,1.83h-24.6c-1.44,0-1.83-.79-1.44-2.36l42.13-121.3c.39-1.31,.79-2.75,1.31-4.32,.52-2.75,.79-5.63,.79-8.51-.13-.65,.39-1.31,1.05-1.44h33.89c1.05,0,1.57,.39,1.7,1.05l47.76,134.78c.39,1.44,0,2.09-1.31,2.09Zm45.14-1.44c0,1.44-.52,2.09-1.7,2.09h-25.65c-1.31,0-1.96-.78-1.96-2.09V117.81c0-1.31,.52-1.83,1.7-1.83h25.91c1.18,0,1.7,.65,1.7,1.83v100.76Zm-2.75-118.16c-3.01,3.14-7.46,4.84-11.91,4.58-4.32,.13-8.51-1.57-11.65-4.58-3.01-3.27-4.58-7.59-4.45-12.04-.13-4.45,1.57-8.64,4.71-11.65,3.14-3.01,7.33-4.58,11.65-4.58,5.1,0,9.03,1.57,11.91,4.58,2.88,3.14,4.45,7.33,4.32,11.65,.13,4.45-1.44,8.77-4.58,12.04Z"/>
</svg>