<?xml version="1.0" encoding="UTF-8"?>
<svg id="Escritorio" xmlns="http://www.w3.org/2000/svg" viewBox="0 0 314.65 314.65">
  <path d="M0,0V314.65H314.65V0H0ZM171.23,245.41c0,30.63-17.95,44.56-44.14,44.56-23.65,0-37.38-12.25-44.35-27.03h0s0,0,0,0c0,0,0,0,0,0l24.08-14.57c4.65,8.24,8.87,15.2,19.01,15.2s15.84-3.8,15.84-18.58v-100.54h29.57v100.95Zm69.92,44.57c-27.46,0-45.2-13.09-53.86-30.2h0l24.08-13.94c6.34,10.35,14.57,17.95,29.15,17.95,12.25,0,20.06-6.13,20.06-14.57,0-10.14-8.03-13.73-21.54-19.64l-7.39-3.17c-21.33-9.08-35.48-20.49-35.48-44.56,0-22.18,16.9-39.07,43.3-39.07,18.8,0,32.31,6.55,42.03,23.66l-23.02,14.78c-5.07-9.08-10.56-12.67-19.01-12.67s-14.15,5.49-14.15,12.67c0,8.87,5.49,12.46,18.16,17.95l7.39,3.17c25.13,10.77,39.29,21.75,39.29,46.46,0,26.61-20.91,41.19-49,41.19Z"/>
</svg>