<?xml version="1.0" encoding="UTF-8"?>
<svg id="Escritorio" xmlns="http://www.w3.org/2000/svg" viewBox="0 0 314.65 314.65">
  <path d="M157.26,6.72c-4.23,0-8.46,1.04-12.11,3.12L30.34,76.12c-7.41,4.29-12.04,12.4-12.04,20.98v120.24c0,8.69,4.62,16.69,12.04,20.98l30.14,17.38c14.6,7.18,19.8,7.17,26.41,7.17,21.66,0,34.05-13.09,34.05-35.8V103c0-1.85-1.5-3.37-3.35-3.37h-14.48c-1.97,0-3.37,1.52-3.37,3.37v123.95c0,10.2-10.53,20.16-27.56,11.7l-31.52-18.19c-1.16-.58-1.86-1.85-1.86-3.12V97.21c0-1.39,.7-2.56,1.86-3.26L155.47,27.69c1.04-.7,2.44-.7,3.6,0l114.81,66.25c1.16,.7,1.86,1.87,1.86,3.15v120.24c0,1.27-.7,2.54-1.74,3.12l-114.93,66.39c-1.04,.58-2.56,.58-3.6,0l-29.55-17.49c-.81-.58-1.95-.69-2.76-.23-8.23,4.63-9.73,5.21-17.38,7.87-1.85,.58-4.75,1.73,1.04,4.98l38.33,22.72c3.71,2.09,7.89,3.24,12.06,3.24s8.44-1.15,12.15-3.24l114.95-66.39c7.41-4.29,12.04-12.29,12.04-20.98V97.21c0-8.69-4.62-16.69-12.04-20.98L169.36,9.84c-3.65-2.09-7.88-3.12-12.11-3.12Zm30.89,92.75c-32.79,0-52.36,13.89-52.36,37.06,0,25.14,19.45,32.08,50.96,35.21,37.65,3.71,40.55,9.28,40.55,16.7,0,12.74-10.29,18.19-34.51,18.19-30.47,0-37.19-7.66-39.39-22.72-.23-1.62-1.61-2.78-3.24-2.78h-14.96c-1.85,0-3.24,1.52-3.24,3.26,0,19.35,10.54,42.38,60.82,42.38,36.38,0,57.23-14.35,57.23-39.37s-16.8-31.41-52.02-36.16c-35.8-4.63-39.39-7.07-39.39-15.41,0-6.95,3.14-16.09,29.55-16.09,23.52,0,32.32,5.08,35.91,20.95,.35,1.51,1.61,2.67,3.24,2.67h14.96c.93,0,1.73-.46,2.42-1.15,.58-.58,.93-1.51,.81-2.56-2.32-27.34-20.5-40.19-57.34-40.19Z"/>
</svg>