<?xml version="1.0" encoding="UTF-8"?>
<svg id="Escritorio" xmlns="http://www.w3.org/2000/svg" viewBox="0 0 314.65 314.65">
  <circle cx="157.33" cy="157.26" r="27.26"/>
  <g>
    <path d="M157.33,219.76c-85.76,0-152.93-27.45-152.93-62.5s67.17-62.51,152.93-62.51,152.93,27.45,152.93,62.51-67.17,62.5-152.93,62.5Zm0-111.71c-82.29,0-139.64,25.93-139.64,49.21s57.34,49.2,139.64,49.2,139.64-25.93,139.64-49.2-57.34-49.21-139.64-49.21Z"/>
    <path d="M218.38,293.65c-13.55,0-29.93-7.43-47.73-21.9-23.56-19.16-47.52-48.71-67.45-83.24-19.93-34.53-33.55-70.05-38.36-100.03-5.15-32.12,.54-54.73,16.02-63.66,30.4-17.47,87.72,26.93,130.6,101.19,19.93,34.53,33.55,70.05,38.36,100.03,5.15,32.12-.54,54.73-16.02,63.66-4.56,2.64-9.74,3.94-15.42,3.94ZM96.24,34.21c-3.32,0-6.26,.69-8.73,2.12-10.21,5.9-13.69,24.14-9.54,50.04,4.55,28.42,17.6,62.33,36.75,95.49,19.14,33.16,41.99,61.42,64.32,79.56,20.36,16.55,37.89,22.67,48.11,16.76,10.21-5.9,13.69-24.14,9.54-50.04-4.55-28.42-17.6-62.33-36.75-95.49-36.1-62.53-79.9-98.45-103.7-98.45Z"/>
    <path d="M96.28,293.65c-5.68,0-10.84-1.31-15.42-3.94-15.48-8.93-21.17-31.55-16.02-63.66,4.81-29.98,18.43-65.51,38.36-100.03C146.07,51.76,203.46,7.29,233.79,24.82c15.48,8.93,21.17,31.55,16.02,63.66-4.81,29.98-18.43,65.51-38.36,100.03-19.93,34.53-43.89,64.08-67.45,83.24-17.79,14.46-34.18,21.9-47.73,21.9ZM218.42,34.21c-23.8,0-67.6,35.92-103.7,98.45-19.14,33.16-32.19,67.06-36.75,95.49-4.15,25.9-.68,44.14,9.54,50.04,10.23,5.91,27.75-.21,48.11-16.76,22.33-18.15,45.17-46.41,64.32-79.56,19.14-33.16,32.19-67.06,36.75-95.49,4.15-25.9,.68-44.14-9.54-50.04-2.47-1.43-5.4-2.12-8.73-2.12Z"/>
  </g>
</svg>