<?xml version="1.0" encoding="UTF-8"?>
<svg id="Escritorio" xmlns="http://www.w3.org/2000/svg" viewBox="0 0 314.65 314.65">
  <path d="M157.33,0C70.58,0,0,70.58,0,157.33s70.58,157.33,157.33,157.33,157.33-70.58,157.33-157.33S244.08,0,157.33,0Zm38.64,47.9c26.15-.44,47.71,9.08,52.21,26.76,6.45,25.29-15.5,55.53-43.61,66.4-25.1,9.71-45.85,8.18-54.37,5.38-9.69-3.18-15.37-9.58-16.75-13.19-.54-1.42-1.48-3.77,0-4.6,.91-.51,1.27-.39,3.7,2.3,2.32,2.55,11.62,9.41,29.3,7.43,46.4-5.2,74.33-41.26,65.5-60.65-6.18-13.58-41.94-19.69-86.61,2.57-54.54,27.18-57.49,49.58-57.96,58.09-1.28,23.4,28.88,35.71,45.2,53.12,.38,.41,.75,.83,1.12,1.24,4.94-1.84,11.78-2.87,22.65-3.06,26.39-.45,41.3,16.94,40.68,32.49-.48,12.25-11.72,17.3-13.81,17.65-1.52,.26-2.35,.31-2.57-.88-.15-.82,.4-1.2,2.18-2.31,1.78-1.1,7.11-4.74,8.06-11.38,.95-6.64-4.02-22.5-29.42-25.46-9-1.05-16.09-.34-22.16,1.27,4.41,9.71,5.25,29.24-4.88,44.35-10.5,15.66-30.04,25.18-49.08,19.88-6.14-1.71-15.44-14.4-7.43-32.1,7.59-16.78,40.02-33.2,44.45-35.38v-.08c-15.03-12.93-51.58-30.37-56.73-57.05-1.46-7.56,2.08-25.66,24.3-46.45,18.69-17.48,44.7-30.87,68.71-39.4,12.61-4.48,25.44-6.74,37.33-6.93Zm-67.37,157.81c-.44,.25-.88,.49-1.32,.72v.05s-15.08,7.12-25.57,18.21c-9.75,10.31-12.47,23.25-7.03,26.4,5.04,2.92,16.78-.54,25.2-9.71,2.76-3.01,5.01-6.27,6.69-9.75,.34-.7,.65-1.4,.94-2.11s.56-1.43,.8-2.16c2.18-6.58,2.4-13.85,.29-21.64Z"/>
</svg>